<svg width="26" height="26" viewBox="0 0 26 26" fill="none" xmlns="http://www.w3.org/2000/svg">
<path d="M6.75 15.5H9.25C9.58152 15.5 9.89946 15.3683 10.1339 15.1339C10.3683 14.8995 10.5 14.5815 10.5 14.25C10.5 13.9185 10.3683 13.6005 10.1339 13.3661C9.89946 13.1317 9.58152 13 9.25 13H6.75C6.41848 13 6.10054 13.1317 5.86612 13.3661C5.6317 13.6005 5.5 13.9185 5.5 14.25C5.5 14.5815 5.6317 14.8995 5.86612 15.1339C6.10054 15.3683 6.41848 15.5 6.75 15.5ZM14.25 18H6.75C6.41848 18 6.10054 18.1317 5.86612 18.3661C5.6317 18.6005 5.5 18.9185 5.5 19.25C5.5 19.5815 5.6317 19.8995 5.86612 20.1339C6.10054 20.3683 6.41848 20.5 6.75 20.5H14.25C14.5815 20.5 14.8995 20.3683 15.1339 20.1339C15.3683 19.8995 15.5 19.5815 15.5 19.25C15.5 18.9185 15.3683 18.6005 15.1339 18.3661C14.8995 18.1317 14.5815 18 14.25 18ZM21.75 0.5H4.25C3.25544 0.5 2.30161 0.895088 1.59835 1.59835C0.895088 2.30161 0.5 3.25544 0.5 4.25V21.75C0.5 22.7446 0.895088 23.6984 1.59835 24.4017C2.30161 25.1049 3.25544 25.5 4.25 25.5H21.75C22.7446 25.5 23.6984 25.1049 24.4017 24.4017C25.1049 23.6984 25.5 22.7446 25.5 21.75V4.25C25.5 3.25544 25.1049 2.30161 24.4017 1.59835C23.6984 0.895088 22.7446 0.5 21.75 0.5ZM15.5 3V7.1125L13.6125 6.0625C13.4225 5.95279 13.2069 5.89503 12.9875 5.89503C12.7681 5.89503 12.5525 5.95279 12.3625 6.0625L10.5 7.1125V3H15.5ZM23 21.75C23 22.0815 22.8683 22.3995 22.6339 22.6339C22.3995 22.8683 22.0815 23 21.75 23H4.25C3.91848 23 3.60054 22.8683 3.36612 22.6339C3.1317 22.3995 3 22.0815 3 21.75V4.25C3 3.91848 3.1317 3.60054 3.36612 3.36612C3.60054 3.1317 3.91848 3 4.25 3H8V9.25C8.00132 9.46814 8.0597 9.68214 8.16934 9.87073C8.27899 10.0593 8.43608 10.2159 8.625 10.325C8.81503 10.4347 9.03058 10.4925 9.25 10.4925C9.46942 10.4925 9.68498 10.4347 9.875 10.325L13 8.5875L16.1375 10.3375C16.3243 10.4434 16.5353 10.4993 16.75 10.5C17.0815 10.5 17.3995 10.3683 17.6339 10.1339C17.8683 9.89946 18 9.58152 18 9.25V3H21.75C22.0815 3 22.3995 3.1317 22.6339 3.36612C22.8683 3.60054 23 3.91848 23 4.25V21.75Z" fill="#FCAC0B"/>
</svg>
