<svg width="121" height="45" viewBox="0 0 121 45" fill="none" xmlns="http://www.w3.org/2000/svg">
    <g clip-path="url(#clip0)">
        <path d="M45.2995 7.08763C44.911 6.38537 44.3765 5.84961 43.697 5.48247C43.0164 5.11533 42.2233 4.93176 41.3165 4.93176C40.3124 4.93176 39.4219 5.15589 38.645 5.60307C37.8682 6.05025 37.2601 6.68954 36.8229 7.51987C36.3858 8.3502 36.1672 9.3086 36.1672 10.3951C36.1672 11.5136 36.3901 12.488 36.8348 13.3172C37.2795 14.1476 37.8995 14.7869 38.6926 15.234C39.4858 15.6812 40.4087 15.9053 41.4615 15.9053C42.7567 15.9053 43.8171 15.566 44.6438 14.8872C45.4693 14.2084 46.0114 13.2617 46.2711 12.0483H40.4412V9.48363H49.6221V12.4069C49.3949 13.5734 48.9091 14.6513 48.1646 15.6407C47.4202 16.6311 46.4605 17.4251 45.2865 18.0249C44.1125 18.6237 42.7967 18.9236 41.3393 18.9236C39.7033 18.9236 38.2263 18.5607 36.9062 17.8339C35.5862 17.1071 34.5507 16.0974 33.7976 14.8029C33.0445 13.5093 32.668 12.0397 32.668 10.3951C32.668 8.75042 33.0445 7.27654 33.7976 5.97448C34.5507 4.67242 35.5873 3.65852 36.9062 2.93171C38.2263 2.20491 39.6957 1.84204 41.3144 1.84204C43.2252 1.84204 44.885 2.30096 46.2938 3.21988C47.7026 4.13879 48.6743 5.42804 49.2088 7.0887H45.2995V7.08763Z" fill="white"/>
        <path d="M52.088 8.52527C52.6301 7.4879 53.3669 6.68852 54.2986 6.12927C55.2291 5.57003 56.27 5.29041 57.4202 5.29041C58.4243 5.29041 59.3029 5.48998 60.056 5.88914C60.8091 6.28829 61.4118 6.79204 61.8651 7.39825V5.50599H65.2897V18.7785H61.8651V16.8382C61.428 17.4615 60.8242 17.9759 60.056 18.3836C59.2867 18.7913 58.4005 18.994 57.3964 18.994C56.2624 18.994 55.2302 18.7059 54.2996 18.1317C53.368 17.5564 52.6312 16.7464 52.0891 15.6994C51.5459 14.6535 51.2754 13.4518 51.2754 12.0942C51.2743 10.7537 51.5448 9.56372 52.088 8.52527ZM61.3782 10.0461C61.0536 9.4634 60.6165 9.01621 60.0668 8.70457C59.5161 8.39293 58.9253 8.23711 58.2934 8.23711C57.6615 8.23711 57.0793 8.38866 56.5448 8.69283C56.0103 8.99594 55.5764 9.43992 55.2453 10.0226C54.9131 10.6054 54.7476 11.297 54.7476 12.0953C54.7476 12.8936 54.9131 13.5926 55.2453 14.1914C55.5775 14.7901 56.0146 15.249 56.5567 15.5692C57.0988 15.8883 57.6777 16.0484 58.2934 16.0484C58.9253 16.0484 59.5161 15.8926 60.0668 15.5809C60.6176 15.2693 61.0547 14.8221 61.3782 14.2394C61.7017 13.6567 61.864 12.9576 61.864 12.1433C61.864 11.329 61.7017 10.6299 61.3782 10.0461Z" fill="white"/>
        <path d="M72.1742 5.91367C72.8786 5.51452 73.6836 5.31494 74.5914 5.31494V8.8369H73.6922C72.6232 8.8369 71.8182 9.08451 71.275 9.57972C70.7318 10.0749 70.4613 10.9373 70.4613 12.1668V18.7795H67.0605V5.50598H70.4613V7.56686C70.8985 6.8646 71.4698 6.31283 72.1742 5.91367Z" fill="white"/>
        <path d="M77.2794 8.52527C77.8215 7.4879 78.5583 6.68852 79.49 6.12927C80.4205 5.57003 81.4614 5.29041 82.6116 5.29041C83.6157 5.29041 84.4943 5.48998 85.2474 5.88914C86.0005 6.28829 86.6032 6.79204 87.0565 7.39825V5.50599H90.4811V18.7785H87.0565V16.8382C86.6194 17.4615 86.0156 17.9759 85.2474 18.3836C84.4781 18.7913 83.5919 18.994 82.5878 18.994C81.4538 18.994 80.4216 18.7059 79.491 18.1317C78.5594 17.5564 77.8226 16.7464 77.2805 15.6994C76.7373 14.6535 76.4668 13.4518 76.4668 12.0942C76.4657 10.7537 76.7373 9.56372 77.2794 8.52527ZM86.5707 10.0461C86.2461 9.4634 85.8089 9.01621 85.2593 8.70457C84.7085 8.39293 84.1178 8.23711 83.4859 8.23711C82.854 8.23711 82.2718 8.38866 81.7373 8.69283C81.2028 8.99594 80.7689 9.43992 80.4378 10.0226C80.1056 10.6054 79.9401 11.297 79.9401 12.0953C79.9401 12.8936 80.1056 13.5926 80.4378 14.1914C80.77 14.7901 81.2071 15.249 81.7492 15.5692C82.2913 15.8883 82.8702 16.0484 83.4859 16.0484C84.1178 16.0484 84.7085 15.8926 85.2593 15.5809C85.81 15.2693 86.2472 14.8221 86.5707 14.2394C86.8942 13.6567 87.0565 12.9576 87.0565 12.1433C87.0565 11.329 86.8942 10.6299 86.5707 10.0461Z" fill="white"/>
        <path d="M103.529 6.80157C104.517 7.79946 105.011 9.19437 105.011 10.982V18.7688H101.61V11.4377C101.61 10.3833 101.343 9.57324 100.808 9.00546C100.274 8.43875 99.5454 8.15485 98.6225 8.15485C97.6833 8.15485 96.9421 8.43875 96.4 9.00546C95.8568 9.57324 95.5863 10.3833 95.5863 11.4377V18.7688H92.1855V5.49524H95.5863V7.14843C96.0397 6.57317 96.6186 6.12279 97.323 5.79514C98.0274 5.46749 98.7999 5.3042 99.6428 5.3042C101.246 5.3042 102.542 5.80368 103.529 6.80157Z" fill="white"/>
        <path d="M111.926 8.26162V14.6823C111.926 15.1294 112.035 15.4528 112.254 15.6524C112.472 15.852 112.84 15.9523 113.358 15.9523H114.937V18.7795H112.799C109.933 18.7795 108.5 17.4059 108.5 14.6588V8.26162H106.896V5.50595H108.5V2.22412H111.925V5.50595H114.937V8.26055H111.926V8.26162Z" fill="white"/>
        <path d="M117.417 3.36605C117.02 2.99144 116.822 2.52398 116.822 1.96474C116.822 1.40549 117.02 0.938032 117.417 0.563423C117.814 0.188815 118.312 0.000976562 118.912 0.000976562C119.51 0.000976562 120.009 0.188815 120.406 0.563423C120.803 0.939099 121.001 1.40656 121.001 1.96474C121.001 2.52398 120.803 2.99144 120.406 3.36605C120.009 3.74173 119.511 3.92956 118.912 3.92956C118.312 3.92956 117.813 3.74173 117.417 3.36605ZM120.587 5.51018V18.7826H117.186V5.51018H120.587Z" fill="white"/>
        <path d="M44.4052 38.4609L36.9198 31.0103V38.4609H32.793V21.739H36.9198V29.2376L44.4052 21.739H49.3857L40.8973 30.0284L49.6216 38.4619H44.4052V38.4609Z" fill="white"/>
        <path d="M52.088 28.1084C52.6301 27.071 53.3669 26.2716 54.2986 25.7124C55.2291 25.1532 56.27 24.8735 57.4202 24.8735C58.4243 24.8735 59.3029 25.0731 60.056 25.4723C60.8091 25.8714 61.4118 26.3752 61.8651 26.9814V25.0891H65.2897V38.3616H61.8651V36.4213C61.428 37.0446 60.8242 37.559 60.056 37.9667C59.2867 38.3744 58.4005 38.5772 57.3964 38.5772C56.2624 38.5772 55.2302 38.289 54.2996 37.7148C53.368 37.1396 52.6312 36.3295 52.0891 35.2825C51.5459 34.2366 51.2754 33.0349 51.2754 31.6773C51.2743 30.3368 51.5448 29.1479 52.088 28.1084ZM61.3782 29.6303C61.0536 29.0476 60.6165 28.6004 60.0668 28.2888C59.5161 27.9771 58.9253 27.8213 58.2934 27.8213C57.6615 27.8213 57.0793 27.9729 56.5448 28.277C56.0103 28.5801 55.5764 29.0241 55.2453 29.6068C54.9131 30.1896 54.7476 30.8811 54.7476 31.6795C54.7476 32.4778 54.9131 33.1768 55.2453 33.7756C55.5775 34.3743 56.0146 34.8332 56.5567 35.1534C57.0988 35.4725 57.6777 35.6326 58.2934 35.6326C58.9253 35.6326 59.5161 35.4768 60.0668 35.1651C60.6176 34.8535 61.0547 34.4063 61.3782 33.8236C61.7017 33.2409 61.864 32.5418 61.864 31.7275C61.864 30.9121 61.7017 30.213 61.3782 29.6303Z" fill="white"/>
        <path d="M72.1742 25.5929C72.8786 25.1937 73.6836 24.9941 74.5914 24.9941V28.5161H73.6922C72.6232 28.5161 71.8182 28.7637 71.275 29.2589C70.7318 29.7541 70.4613 30.6165 70.4613 31.846V38.4587H67.0605V25.1862H70.4613V27.2471C70.8985 26.5438 71.4698 25.9931 72.1742 25.5929Z" fill="white"/>
        <path d="M85.2838 25.5576C86.0445 25.9493 86.6439 26.4562 87.081 27.0785V25.1862H90.5056V38.5547C90.5056 39.7842 90.2546 40.8824 89.7525 41.8493C89.2505 42.8152 88.4974 43.5826 87.4933 44.1493C86.4892 44.716 85.2741 44.9999 83.8501 44.9999C81.9393 44.9999 80.3725 44.5602 79.1498 43.6829C77.9272 42.8045 77.2347 41.606 77.0734 40.0894H80.4493C80.6279 40.6967 81.012 41.1791 81.6028 41.5388C82.1936 41.8984 82.9099 42.0777 83.7527 42.0777C84.7406 42.0777 85.5424 41.7864 86.157 41.2036C86.7727 40.6209 87.08 39.7383 87.08 38.5568V36.496C86.6428 37.1192 86.0391 37.6379 85.2708 38.0531C84.5015 38.4683 83.6229 38.6764 82.635 38.6764C81.5011 38.6764 80.4645 38.3882 79.5264 37.814C78.5872 37.2388 77.846 36.4287 77.3039 35.3817C76.7607 34.3358 76.4902 33.1341 76.4902 31.7765C76.4902 30.435 76.7618 29.245 77.3039 28.2066C77.846 27.1692 78.5829 26.3698 79.5145 25.8106C80.445 25.2513 81.4859 24.9717 82.6361 24.9717C83.6402 24.9706 84.5221 25.1659 85.2838 25.5576ZM86.5952 29.7263C86.2706 29.1436 85.8335 28.6964 85.2838 28.3848C84.7331 28.0731 84.1423 27.9173 83.5104 27.9173C82.8785 27.9173 82.2964 28.0689 81.7618 28.373C81.2273 28.6761 80.7934 29.1201 80.4623 29.7028C80.1301 30.2856 79.9646 30.9772 79.9646 31.7755C79.9646 32.5738 80.1301 33.2728 80.4623 33.8716C80.7945 34.4703 81.2316 34.9292 81.7737 35.2494C82.3158 35.5685 82.8947 35.7286 83.5104 35.7286C84.1423 35.7286 84.7331 35.5728 85.2838 35.2611C85.8346 34.9495 86.2717 34.5023 86.5952 33.9196C86.9187 33.3369 87.081 32.6378 87.081 31.8235C87.081 31.0081 86.9187 30.3091 86.5952 29.7263Z" fill="white"/>
        <path d="M95.3007 37.813C94.3301 37.2463 93.5695 36.4437 93.0155 35.4052C92.4615 34.3679 92.1855 33.1693 92.1855 31.8118C92.1855 30.4542 92.4701 29.2568 93.0382 28.2183C93.6062 27.1799 94.3831 26.3773 95.3689 25.8106C96.3546 25.2439 97.4528 24.96 98.6658 24.96C99.8787 24.96 100.977 25.2439 101.963 25.8106C102.947 26.3773 103.724 27.1799 104.293 28.2183C104.861 29.2568 105.146 30.4542 105.146 31.8118C105.146 33.1693 104.854 34.3679 104.271 35.4052C103.687 36.4437 102.899 37.2463 101.906 37.813C100.913 38.3797 99.803 38.6636 98.576 38.6636C97.3619 38.6636 96.2713 38.3808 95.3007 37.813ZM100.201 35.2975C100.709 35.0018 101.114 34.5589 101.417 33.9676C101.72 33.3775 101.872 32.6581 101.872 31.8118C101.872 30.5503 101.557 29.5801 100.928 28.9003C100.3 28.2215 99.5303 27.8821 98.6203 27.8821C97.7103 27.8821 96.9497 28.2215 96.3351 28.9003C95.7216 29.5791 95.4143 30.5492 95.4143 31.8118C95.4143 33.0733 95.7129 34.0445 96.3124 34.7233C96.9107 35.402 97.6649 35.7414 98.5749 35.7414C99.1516 35.7414 99.6926 35.5931 100.201 35.2975Z" fill="white"/>
        <path d="M12.9366 35.3872L9.15496 32.6027L4.51526 29.1886L0 25.8651V38.5346H25.7932V25.9814L16.7258 32.6155L12.9366 35.3872Z" fill="white"/>
        <path d="M0 1.26575V5.80908V22.6771L4.51526 26.0017L9.15496 29.4158L12.9366 32.1992L16.7258 29.4286L25.7932 22.7945V12.4229H12.8977V16.7955H21.3504V20.4935L12.9431 26.6452L4.51526 20.4412V5.80908H21.3504V10.235H25.7932V1.26575H0Z" fill="white"/>
    </g>
    <defs>
        <clipPath id="clip0">
            <rect width="121" height="45" fill="white"/>
        </clipPath>
    </defs>
</svg>
