<svg width="28" height="26" viewBox="0 0 28 26" fill="none" xmlns="http://www.w3.org/2000/svg">
<path d="M26.8309 1.03448C26.475 0.738398 26.0454 0.544349 25.588 0.472986C25.1306 0.401623 24.6624 0.455615 24.2332 0.629218L1.83207 9.67341C1.35301 9.87051 0.94522 10.2086 0.662825 10.6429C0.380429 11.0772 0.236784 11.5871 0.250956 12.1049C0.265128 12.6228 0.436446 13.124 0.742172 13.5422C1.0479 13.9604 1.47357 14.2758 1.9627 14.4464L6.49395 16.0223L9.01957 24.3743C9.0539 24.4859 9.10371 24.5921 9.16755 24.6898C9.17724 24.7048 9.1909 24.716 9.2012 24.7306C9.27496 24.8335 9.36409 24.9244 9.46549 25.0003C9.49432 25.0222 9.52194 25.0428 9.55276 25.0624C9.67143 25.1411 9.80285 25.1987 9.94117 25.2325L9.95597 25.2337L9.96436 25.2373C10.0475 25.2543 10.1322 25.2628 10.217 25.263C10.2252 25.263 10.2325 25.2591 10.2405 25.2589C10.3686 25.2567 10.4956 25.2346 10.6169 25.1935C10.6451 25.1839 10.6693 25.1678 10.6967 25.1562C10.7872 25.1187 10.8729 25.0707 10.9521 25.013C11.0155 24.9596 11.0789 24.9062 11.1423 24.8528L14.52 21.1236L19.5579 25.0262C20.0014 25.3714 20.5473 25.5591 21.1094 25.5596C21.6984 25.5589 22.2692 25.3556 22.7261 24.984C23.1831 24.6124 23.4984 24.095 23.6192 23.5186L27.6975 3.49787C27.79 3.04726 27.7581 2.58001 27.6055 2.1461C27.4528 1.71219 27.1851 1.32795 26.8309 1.03448ZM10.7127 16.4202C10.5394 16.5929 10.4209 16.8128 10.3721 17.0526L9.98524 18.9326L9.00516 15.6912L14.0867 13.045L10.7127 16.4202ZM21.0899 23.0498L15.1365 18.438C14.8874 18.2455 14.575 18.154 14.2614 18.1816C13.9479 18.2092 13.6562 18.3539 13.4446 18.5869L12.3629 19.7809L12.7452 17.9229L21.5989 9.06912C21.8102 8.85807 21.939 8.57831 21.9619 8.28052C21.9847 7.98273 21.9002 7.6866 21.7235 7.44576C21.5469 7.20493 21.2899 7.03532 20.9989 6.96766C20.708 6.9 20.4025 6.93877 20.1377 7.07693L7.43114 13.6927L2.77569 11.9891L25.2488 2.99857L21.0899 23.0498Z" fill="#FCAC0B"/>
</svg>
