<svg width="121" height="36" viewBox="0 0 121 36" fill="none" xmlns="http://www.w3.org/2000/svg">
    <path d="M116.077 35.0411H4.58454C2.32508 35.0411 0.494141 33.2101 0.494141 30.9507V4.5384C0.494141 2.27894 2.32508 0.447998 4.58454 0.447998H116.077C118.337 0.447998 120.168 2.27894 120.168 4.5384V30.9507C120.168 33.2101 118.337 35.0411 116.077 35.0411Z" fill="black"/>
    <path d="M4.58311 0.895992C2.5747 0.895992 0.940703 2.52999 0.940703 4.53839V30.9507C0.940703 32.9591 2.5747 34.5931 4.58311 34.5931H116.078C118.086 34.5931 119.72 32.9591 119.72 30.9507V4.53839C119.72 2.52999 118.086 0.895992 116.078 0.895992H4.58311ZM116.078 35.4891H4.58311C2.08125 35.4891 0.046875 33.4525 0.046875 30.9507V4.53839C0.046875 2.03654 2.08125 0 4.58311 0H116.078C118.58 0 120.614 2.03654 120.614 4.53839V30.9507C120.614 33.4525 118.58 35.4891 116.078 35.4891Z" fill="#A7A9AB"/>
    <path d="M41.8561 9.28834L41.3973 7.85129C41.2847 7.49636 41.1895 7.10031 41.1029 6.76269H41.0856C41.0012 7.10031 40.9125 7.50502 40.8108 7.85129L40.3606 9.28834H41.8561ZM40.1875 10.0913L39.6854 11.7447H38.5859L40.4558 5.91431H41.8128L43.7065 11.7447H42.566L42.0379 10.0913" fill="white"/>
    <path d="M45.2959 7.53381L45.9798 9.66775C46.101 10.04 46.1854 10.3776 46.2633 10.7239H46.2893C46.3672 10.3776 46.4624 10.0487 46.575 9.66775L47.2502 7.53381H48.3648L46.7568 11.7454H45.7114L44.1445 7.53381" fill="white"/>
    <path d="M51.5745 9.68483C50.8213 9.67617 50.1028 9.832 50.1028 10.4726C50.1028 10.8881 50.3712 11.0786 50.7088 11.0786C51.1395 11.0786 51.4446 10.8016 51.5464 10.4986C51.5745 10.4207 51.5745 10.3428 51.5745 10.2648V9.68483ZM52.6112 10.7323C52.6112 11.1132 52.6285 11.4855 52.6804 11.743H51.7195L51.6437 11.2777H51.6156C51.3667 11.6045 50.9252 11.8382 50.3712 11.8382C49.5228 11.8382 49.0488 11.2258 49.0488 10.5851C49.0488 9.529 49.9903 8.98578 51.5464 8.99444V8.92518C51.5464 8.64816 51.436 8.18934 50.6915 8.18934C50.2759 8.18934 49.8431 8.3192 49.5574 8.50099L49.3497 7.80844C49.6613 7.61799 50.2067 7.43835 50.8733 7.43835C52.2216 7.43835 52.6112 8.29323 52.6112 9.21952" fill="white"/>
    <path d="M54.1153 7.53287H55.1779V11.7445H54.1153V7.53287ZM54.6412 6.92688C54.2884 6.92688 54.0547 6.66718 54.0547 6.35553C54.0547 6.02656 54.2949 5.77551 54.652 5.77551C55.0134 5.77551 55.2385 6.02656 55.2472 6.35553C55.2472 6.66718 55.0134 6.92688 54.652 6.92688" fill="white"/>
    <path d="M56.709 11.7452H57.7738V5.59448H56.709V11.7452Z" fill="white"/>
    <path d="M61.5432 9.68483C60.7901 9.67617 60.0716 9.832 60.0716 10.4726C60.0716 10.8881 60.3399 11.0786 60.6775 11.0786C61.1104 11.0786 61.4134 10.8016 61.5173 10.4986C61.5432 10.4207 61.5432 10.3428 61.5432 10.2648V9.68483ZM62.5799 10.7323C62.5799 11.1132 62.5972 11.4855 62.6492 11.743H61.6904L61.6125 11.2777H61.5865C61.3355 11.6045 60.894 11.8382 60.3399 11.8382C59.4937 11.8382 59.0176 11.2258 59.0176 10.5851C59.0176 9.529 59.9612 8.98578 61.5173 8.99444V8.92518C61.5173 8.64816 61.4047 8.18934 60.6602 8.18934C60.2447 8.18934 59.8119 8.3192 59.5283 8.50099L59.3206 7.80844C59.6322 7.61799 60.1754 7.43835 60.842 7.43835C62.1903 7.43835 62.5799 8.29323 62.5799 9.21952" fill="white"/>
    <path d="M65.1483 10.0052C65.1483 10.0918 65.1569 10.1783 65.1742 10.2562C65.2868 10.6891 65.659 11.0007 66.1157 11.0007C66.7823 11.0007 67.1891 10.4727 67.1891 9.61779C67.1891 8.87329 66.8342 8.26731 66.1243 8.26731C65.6915 8.26731 65.2954 8.57896 65.1829 9.04643C65.1656 9.12435 65.1483 9.21957 65.1483 9.32345V10.0052ZM64.0835 5.59448H65.1483V8.11148H65.1656C65.4253 7.70461 65.8819 7.43841 66.5139 7.43841C67.5441 7.43841 68.2777 8.29328 68.2691 9.57451C68.2691 11.0873 67.3103 11.8405 66.3581 11.8405C65.8127 11.8405 65.3301 11.6327 65.0271 11.1133H65.0097L64.9578 11.7452H64.0488C64.0661 11.4596 64.0835 10.9921 64.0835 10.5679" fill="white"/>
    <path d="M69.5234 11.7452H70.5861V5.59448H69.5234V11.7452Z" fill="white"/>
    <path d="M74.7274 9.19355C74.7361 8.80399 74.5629 8.16337 73.8552 8.16337C73.1973 8.16337 72.9203 8.7607 72.877 9.19355H74.7274ZM72.877 9.93588C72.903 10.6977 73.5003 11.0267 74.1755 11.0267C74.6668 11.0267 75.0131 10.9487 75.342 10.8362L75.4979 11.5612C75.1343 11.7192 74.6322 11.8296 74.0284 11.8296C72.6606 11.8296 71.8555 10.992 71.8555 9.70431C71.8555 8.53562 72.5653 7.43835 73.9158 7.43835C75.2814 7.43835 75.7316 8.56159 75.7316 9.48788C75.7316 9.68699 75.7143 9.84282 75.697 9.93588" fill="white"/>
    <path d="M81.0158 11.0699C81.6197 11.0699 82.0439 10.4813 82.0439 9.62639C82.0439 8.96847 81.7495 8.20666 81.0245 8.20666C80.2714 8.20666 79.9684 8.9425 79.9684 9.64371C79.9684 10.4553 80.3752 11.0699 81.005 11.0699H81.0158ZM80.9812 11.8404C79.7952 11.8404 78.8711 11.0267 78.8711 9.66968C78.8711 8.28457 79.7779 7.43835 81.0505 7.43835C82.3036 7.43835 83.1433 8.3192 83.1433 9.60042C83.1433 11.1478 82.0525 11.8404 80.9899 11.8404" fill="white"/>
    <path d="M84.3938 8.78667C84.3938 8.30188 84.3786 7.89501 84.3613 7.53142H85.2855L85.3374 8.16337H85.3634C85.5538 7.83441 86.0126 7.43835 86.7138 7.43835C87.4475 7.43835 88.2093 7.91232 88.2093 9.24549V11.743H87.1445V9.36669C87.1445 8.7607 86.9195 8.30188 86.3416 8.30188C85.9174 8.30188 85.6231 8.60488 85.5105 8.92518C85.4759 9.01175 85.4586 9.14161 85.4586 9.2628V11.743H84.3938" fill="white"/>
    <path d="M93.1116 6.45154V7.53149H94.1223V8.32793H93.1116V10.1783C93.1116 10.6978 93.2501 10.9575 93.6548 10.9575C93.8453 10.9575 93.9492 10.9488 94.0704 10.9142L94.0877 11.7171C93.9319 11.7799 93.6462 11.8297 93.3172 11.8297C92.9212 11.8297 92.6009 11.6998 92.4017 11.4855C92.168 11.2431 92.0641 10.8536 92.0641 10.2995V8.32793H91.4668V7.53149H92.0641V6.74587" fill="white"/>
    <path d="M95.3047 5.59448H96.3695V8.10283H96.3868C96.5167 7.90372 96.6985 7.73924 96.9149 7.6267C97.1313 7.50766 97.3802 7.43841 97.6486 7.43841C98.3671 7.43841 99.1181 7.91237 99.1181 9.26286V11.7452H98.0554V9.3754C98.0554 8.76941 97.8303 8.30194 97.2417 8.30194C96.8283 8.30194 96.534 8.57896 96.4128 8.89926C96.3781 8.99449 96.3695 9.10703 96.3695 9.21957V11.7452H95.3047" fill="white"/>
    <path d="M103.235 9.19355C103.244 8.80399 103.071 8.16337 102.361 8.16337C101.703 8.16337 101.428 8.7607 101.385 9.19355H103.235ZM101.385 9.93588C101.411 10.6977 102.006 11.0267 102.681 11.0267C103.175 11.0267 103.521 10.9487 103.848 10.8362L104.006 11.5612C103.642 11.7192 103.14 11.8296 102.534 11.8296C101.168 11.8296 100.363 10.992 100.363 9.70431C100.363 8.53562 101.073 7.43835 102.421 7.43835C103.787 7.43835 104.237 8.56159 104.237 9.48788C104.237 9.68699 104.22 9.84282 104.203 9.93588" fill="white"/>
    <path d="M26.9541 17.3981C26.926 14.5131 29.3153 13.1086 29.4257 13.0436C28.073 11.0699 25.9759 10.8015 25.2379 10.7798C23.4783 10.5959 21.7708 11.836 20.8748 11.836C19.9593 11.836 18.5764 10.7993 17.0895 10.8296C15.172 10.8599 13.38 11.9702 12.3975 13.6907C10.3718 17.2033 11.8824 22.3628 13.8259 25.2023C14.7998 26.5917 15.9338 28.1456 17.4207 28.0894C18.875 28.0288 19.4182 27.1631 21.1734 27.1631C22.9135 27.1631 23.4242 28.0894 24.9414 28.0547C26.5018 28.0288 27.4843 26.6588 28.4215 25.2542C29.5469 23.6614 29.997 22.0923 30.0143 22.0122C29.9775 21.9992 26.9844 20.8565 26.9541 17.3981Z" fill="white"/>
    <path d="M24.0886 8.91396C24.8699 7.93572 25.4087 6.60256 25.2573 5.25208C24.1254 5.30402 22.7099 6.03553 21.894 6.99212C21.1733 7.83617 20.5262 9.21911 20.695 10.5177C21.9676 10.6129 23.2727 9.87704 24.0886 8.91396Z" fill="white"/>
    <path d="M44.5066 22.9064L43.5024 19.8051C43.3964 19.4891 43.1973 18.7424 42.9029 17.5694H42.8683C42.7514 18.0737 42.561 18.8203 42.3034 19.8051L41.3166 22.9064H44.5066ZM47.9781 27.8603H45.9502L44.8399 24.3716H40.9833L39.925 27.8603H37.9512L41.7775 15.983H44.1365" fill="white"/>
    <path d="M55.8732 23.5423C55.8732 22.7069 55.6849 22.0209 55.3083 21.4798C54.8971 20.9171 54.3452 20.6336 53.6527 20.6336C53.183 20.6336 52.7545 20.7916 52.3758 21.1011C51.9949 21.4149 51.7438 21.8218 51.6248 22.3282C51.5664 22.5619 51.5382 22.7546 51.5382 22.9061V24.3345C51.5382 24.9578 51.7287 25.4837 52.1096 25.9122C52.4927 26.3429 52.9883 26.555 53.5986 26.555C54.3171 26.555 54.8755 26.2801 55.2715 25.7261C55.6741 25.1742 55.8732 24.447 55.8732 23.5423ZM57.8123 23.4709C57.8123 24.9275 57.4185 26.081 56.6307 26.925C55.9251 27.6782 55.0486 28.0526 54.0055 28.0526C52.8757 28.0526 52.0663 27.6457 51.5729 26.8363H51.5382V31.3487H49.6337V22.1139C49.6337 21.1985 49.6121 20.2592 49.5645 19.294H51.2374L51.3435 20.6531H51.3802C52.0144 19.6294 52.9774 19.1187 54.2695 19.1187C55.278 19.1187 56.1242 19.519 56.7973 20.3176C57.4726 21.1184 57.8123 22.1681 57.8123 23.4709Z" fill="white"/>
    <path d="M65.7226 23.5423C65.7226 22.7069 65.5343 22.0209 65.1577 21.4798C64.7465 20.9171 64.1946 20.6336 63.5021 20.6336C63.0324 20.6336 62.6061 20.7916 62.2252 21.1011C61.8421 21.4149 61.5954 21.8218 61.4785 22.3282C61.4179 22.5619 61.3898 22.7546 61.3898 22.9061V24.3345C61.3898 24.9578 61.5781 25.4837 61.959 25.9122C62.3421 26.3429 62.8377 26.555 63.4501 26.555C64.1665 26.555 64.7249 26.2801 65.1231 25.7261C65.5213 25.1742 65.7226 24.447 65.7226 23.5423ZM67.6596 23.4709C67.6596 24.9275 67.2679 26.081 66.4801 26.925C65.7745 27.6782 64.9002 28.0526 63.8549 28.0526C62.7273 28.0526 61.9179 27.6457 61.4223 26.8363H61.3898V31.3487H59.4853V22.1139C59.4853 21.1985 59.4615 20.2592 59.416 19.294H61.089L61.195 20.6531H61.2318C61.8638 19.6294 62.8268 19.1187 64.1189 19.1187C65.1296 19.1187 65.9715 19.519 66.6489 20.3176C67.3241 21.1184 67.6596 22.1681 67.6596 23.4709Z" fill="white"/>
    <path d="M78.6761 24.5293C78.6761 25.5378 78.3255 26.3603 77.6199 26.9965C76.8451 27.6891 75.7695 28.0354 74.3866 28.0354C73.1075 28.0354 72.0816 27.7887 71.3047 27.2952L71.7462 25.711C72.5837 26.2153 73.4992 26.4663 74.4991 26.4663C75.2155 26.4663 75.7738 26.3062 76.1742 25.9837C76.5724 25.659 76.7715 25.2262 76.7715 24.6851C76.7715 24.2047 76.6092 23.7956 76.2803 23.4667C75.9513 23.1377 75.4037 22.8326 74.6398 22.549C72.5599 21.7721 71.5211 20.6359 71.5211 19.1425C71.5211 18.1665 71.8847 17.3657 72.614 16.7424C73.3412 16.1191 74.3108 15.8053 75.5206 15.8053C76.6027 15.8053 77.5009 15.9958 78.2172 16.3702L77.7411 17.9219C77.0724 17.5583 76.3149 17.3744 75.4687 17.3744C74.7978 17.3744 74.2762 17.5388 73.9018 17.8678C73.5858 18.1621 73.4256 18.5214 73.4256 18.9434C73.4256 19.4131 73.6053 19.8005 73.971 20.1056C74.287 20.387 74.8627 20.6921 75.6981 21.0233C76.7196 21.4345 77.4706 21.9149 77.9532 22.4668C78.4337 23.0187 78.6761 23.7069 78.6761 24.5293Z" fill="white"/>
    <path d="M84.9638 20.7226H82.8667V24.8801C82.8667 25.9384 83.2368 26.4665 83.9791 26.4665C84.3167 26.4665 84.6003 26.4384 84.8232 26.3799L84.8751 27.8235C84.5029 27.9663 84.0073 28.0356 83.3969 28.0356C82.646 28.0356 82.0573 27.8062 81.6331 27.3495C81.2111 26.8907 80.999 26.1202 80.999 25.0403V20.7226H79.748V19.2942H80.999V17.7273L82.8667 17.1625V19.2942H84.9638" fill="white"/>
    <path d="M92.4556 23.5683C92.4556 22.7784 92.2846 22.1031 91.9427 21.5361C91.5466 20.8522 90.9753 20.5103 90.2351 20.5103C89.4711 20.5103 88.8889 20.8522 88.4907 21.5361C88.1488 22.1031 87.9821 22.7914 87.9821 23.6051C87.9821 24.3951 88.1488 25.0703 88.4907 25.6352C88.9019 26.3191 89.4776 26.661 90.2199 26.661C90.945 26.661 91.5163 26.3147 91.9275 25.6178C92.2803 25.0422 92.4556 24.3583 92.4556 23.5683ZM94.4294 23.5077C94.4294 24.8236 94.055 25.9035 93.3018 26.7497C92.514 27.6198 91.4687 28.0526 90.1658 28.0526C88.9062 28.0526 87.9064 27.6349 87.1597 26.8017C86.4152 25.9684 86.043 24.9166 86.043 23.6484C86.043 22.3196 86.426 21.2331 87.1965 20.3891C87.9648 19.5407 89.0015 19.1187 90.3043 19.1187C91.5618 19.1187 92.5746 19.5363 93.3364 20.3696C94.0658 21.1833 94.4294 22.2265 94.4294 23.5077Z" fill="white"/>
    <path d="M100.615 20.9691C100.427 20.9344 100.227 20.9171 100.015 20.9171C99.3466 20.9171 98.8272 21.1703 98.4636 21.6746C98.1477 22.1226 97.9897 22.6853 97.9897 23.3649V27.86H96.0873L96.1025 21.9928C96.1025 21.0037 96.0787 20.1055 96.0332 19.294H97.691L97.7603 20.9344H97.81C98.0113 20.3717 98.3295 19.9173 98.7623 19.5775C99.1865 19.2723 99.6453 19.1187 100.139 19.1187C100.314 19.1187 100.474 19.1316 100.615 19.1533" fill="white"/>
    <path d="M107.308 22.679C107.321 22.1163 107.197 21.6272 106.94 21.216C106.611 20.6879 106.102 20.4217 105.422 20.4217C104.801 20.4217 104.295 20.6815 103.908 21.1987C103.592 21.6099 103.401 22.1034 103.347 22.679H107.308ZM109.121 23.1725C109.121 23.5144 109.1 23.8001 109.054 24.036H103.347C103.366 24.8822 103.643 25.5293 104.174 25.9752C104.654 26.3755 105.277 26.5725 106.041 26.5725C106.886 26.5725 107.656 26.4383 108.351 26.1678L108.649 27.4901C107.838 27.8407 106.881 28.0204 105.775 28.0204C104.449 28.0204 103.405 27.6286 102.648 26.8452C101.893 26.0661 101.512 25.0164 101.512 23.7006C101.512 22.4085 101.862 21.3329 102.57 20.4758C103.308 19.5582 104.308 19.1016 105.563 19.1016C106.797 19.1016 107.734 19.5582 108.368 20.4758C108.872 21.203 109.121 22.1034 109.121 23.1725Z" fill="white"/>
</svg>
