<svg width="20" height="20" viewBox="0 0 20 20" fill="none" xmlns="http://www.w3.org/2000/svg">
<path fill-rule="evenodd" clip-rule="evenodd" d="M3.23223 1.56548C3.70107 1.09664 4.33696 0.833252 5 0.833252H11.6667C11.8877 0.833252 12.0996 0.921049 12.2559 1.07733L17.2559 6.07733C17.4122 6.23361 17.5 6.44557 17.5 6.66658V16.6666C17.5 17.3296 17.2366 17.9655 16.7678 18.4344C16.2989 18.9032 15.663 19.1666 15 19.1666H5C4.33696 19.1666 3.70107 18.9032 3.23223 18.4344C2.76339 17.9655 2.5 17.3296 2.5 16.6666V3.33325C2.5 2.67021 2.76339 2.03433 3.23223 1.56548ZM5 2.49992C4.77899 2.49992 4.56702 2.58772 4.41074 2.744C4.25446 2.90028 4.16667 3.11224 4.16667 3.33325V16.6666C4.16667 16.8876 4.25446 17.0996 4.41074 17.2558C4.56702 17.4121 4.77899 17.4999 5 17.4999H15C15.221 17.4999 15.433 17.4121 15.5893 17.2558C15.7455 17.0996 15.8333 16.8876 15.8333 16.6666V7.01176L11.3215 2.49992H5Z" fill="#FCAC0B"/>
<path fill-rule="evenodd" clip-rule="evenodd" d="M5.83301 14.1666C5.83301 13.7063 6.2061 13.3333 6.66634 13.3333H13.333C13.7932 13.3333 14.1663 13.7063 14.1663 14.1666C14.1663 14.6268 13.7932 14.9999 13.333 14.9999H6.66634C6.2061 14.9999 5.83301 14.6268 5.83301 14.1666Z" fill="#FCAC0B"/>
<path fill-rule="evenodd" clip-rule="evenodd" d="M5.83301 10.8333C5.83301 10.3731 6.2061 10 6.66634 10H13.333C13.7932 10 14.1663 10.3731 14.1663 10.8333C14.1663 11.2936 13.7932 11.6667 13.333 11.6667H6.66634C6.2061 11.6667 5.83301 11.2936 5.83301 10.8333Z" fill="#FCAC0B"/>
<path fill-rule="evenodd" clip-rule="evenodd" d="M5.83301 7.50008C5.83301 7.03984 6.2061 6.66675 6.66634 6.66675H8.33301C8.79325 6.66675 9.16634 7.03984 9.16634 7.50008C9.16634 7.96032 8.79325 8.33341 8.33301 8.33341H6.66634C6.2061 8.33341 5.83301 7.96032 5.83301 7.50008Z" fill="#FCAC0B"/>
<path fill-rule="evenodd" clip-rule="evenodd" d="M11.6663 0.833252C12.1266 0.833252 12.4997 1.20635 12.4997 1.66659V5.83325H16.6663C17.1266 5.83325 17.4997 6.20635 17.4997 6.66659C17.4997 7.12682 17.1266 7.49992 16.6663 7.49992H11.6663C11.2061 7.49992 10.833 7.12682 10.833 6.66659V1.66659C10.833 1.20635 11.2061 0.833252 11.6663 0.833252Z" fill="#FCAC0B"/>
</svg>
