<svg width="120" height="45" viewBox="0 0 120 45" fill="none" xmlns="http://www.w3.org/2000/svg">
    <path d="M44.9255 7.08763C44.5403 6.38537 44.0102 5.84961 43.3363 5.48247C42.6613 5.11533 41.8748 4.93176 40.9755 4.93176C39.9797 4.93176 39.0966 5.15589 38.3261 5.60307C37.5556 6.05025 36.9526 6.68954 36.519 7.51987C36.0855 8.3502 35.8688 9.3086 35.8688 10.3951C35.8688 11.5136 36.0898 12.488 36.5309 13.3172C36.9719 14.1476 37.5868 14.7869 38.3733 15.234C39.1599 15.6812 40.0752 15.9053 41.1193 15.9053C42.4038 15.9053 43.4554 15.566 44.2752 14.8872C45.094 14.2084 45.6316 13.2617 45.8892 12.0483H40.1074V9.48363H49.2125V12.4069C48.9871 13.5734 48.5053 14.6513 47.767 15.6407C47.0288 16.6311 46.0769 17.4251 44.9127 18.0249C43.7484 18.6237 42.4435 18.9236 40.9981 18.9236C39.3756 18.9236 37.9108 18.5607 36.6017 17.8339C35.2925 17.1071 34.2656 16.0974 33.5187 14.8029C32.7719 13.5093 32.3984 12.0397 32.3984 10.3951C32.3984 8.75042 32.7719 7.27653 33.5187 5.97448C34.2656 4.67242 35.2936 3.65852 36.6017 2.93171C37.9108 2.20491 39.3681 1.84204 40.9734 1.84204C42.8684 1.84204 44.5145 2.30096 45.9117 3.21988C47.3088 4.13879 48.2725 5.42804 48.8026 7.0887H44.9255V7.08763Z" fill="#4D148C"/>
    <path d="M51.6574 8.5254C52.1951 7.48802 52.9258 6.68864 53.8497 6.12939C54.7726 5.57015 55.8049 5.29053 56.9456 5.29053C57.9414 5.29053 58.8127 5.49011 59.5596 5.88926C60.3064 6.28842 60.9042 6.79216 61.3538 7.39837V5.50611H64.7501V18.7786H61.3538V16.8383C60.9203 17.4616 60.3215 17.976 59.5596 18.3837C58.7966 18.7914 57.9178 18.9942 56.922 18.9942C55.7974 18.9942 54.7737 18.706 53.8508 18.1318C52.9269 17.5566 52.1961 16.7465 51.6585 15.6995C51.1198 14.6536 50.8516 13.4519 50.8516 12.0943C50.8505 10.7538 51.1188 9.56384 51.6574 8.5254ZM60.8709 10.0462C60.549 9.46352 60.1154 9.01634 59.5703 8.7047C59.0241 8.39306 58.4382 8.23724 57.8115 8.23724C57.1849 8.23724 56.6076 8.38879 56.0775 8.69296C55.5474 8.99606 55.117 9.44004 54.7887 10.0228C54.4592 10.6055 54.2951 11.2971 54.2951 12.0954C54.2951 12.8937 54.4592 13.5928 54.7887 14.1915C55.1181 14.7902 55.5516 15.2491 56.0893 15.5693C56.6269 15.8884 57.201 16.0485 57.8115 16.0485C58.4382 16.0485 59.0241 15.8927 59.5703 15.5811C60.1165 15.2694 60.55 14.8222 60.8709 14.2395C61.1917 13.6568 61.3527 12.9577 61.3527 12.1434C61.3527 11.3291 61.1917 10.63 60.8709 10.0462Z" fill="#4D148C"/>
    <path d="M71.5792 5.91368C72.2777 5.51452 73.0761 5.31494 73.9764 5.31494V8.8369H73.0847C72.0245 8.8369 71.2261 9.08451 70.6874 9.57972C70.1487 10.0749 69.8805 10.9373 69.8805 12.1668V18.7795H66.5078V5.50598H69.8805V7.56686C70.314 6.8646 70.8806 6.31283 71.5792 5.91368Z" fill="#4D148C"/>
    <path d="M76.6418 8.5254C77.1794 7.48802 77.9102 6.68864 78.8341 6.12939C79.757 5.57015 80.7893 5.29053 81.9299 5.29053C82.9258 5.29053 83.7971 5.49011 84.544 5.88926C85.2908 6.28842 85.8885 6.79216 86.3382 7.39837V5.50611H89.7344V18.7786H86.3382V16.8383C85.9046 17.4616 85.3059 17.976 84.544 18.3837C83.781 18.7914 82.9022 18.9942 81.9063 18.9942C80.7818 18.9942 79.758 18.706 78.8352 18.1318C77.9113 17.5566 77.1805 16.7465 76.6429 15.6995C76.1042 14.6536 75.8359 13.4519 75.8359 12.0943C75.8349 10.7538 76.1042 9.56384 76.6418 8.5254ZM85.8563 10.0462C85.5344 9.46352 85.1009 9.01634 84.5558 8.7047C84.0096 8.39306 83.4237 8.23724 82.797 8.23724C82.1703 8.23724 81.593 8.38879 81.0629 8.69296C80.5328 8.99606 80.1025 9.44004 79.7741 10.0228C79.4447 10.6055 79.2805 11.2971 79.2805 12.0954C79.2805 12.8937 79.4447 13.5928 79.7741 14.1915C80.1036 14.7902 80.5371 15.2491 81.0747 15.5693C81.6123 15.8884 82.1864 16.0485 82.797 16.0485C83.4237 16.0485 84.0096 15.8927 84.5558 15.5811C85.102 15.2694 85.5355 14.8222 85.8563 14.2395C86.1772 13.6568 86.3382 12.9577 86.3382 12.1434C86.3382 11.3291 86.1772 10.63 85.8563 10.0462Z" fill="#4D148C"/>
    <path d="M102.674 6.80157C103.654 7.79946 104.143 9.19437 104.143 10.982V18.7688H100.77V11.4377C100.77 10.3833 100.505 9.57324 99.9752 9.00546C99.4451 8.43875 98.7229 8.15485 97.8076 8.15485C96.8761 8.15485 96.1411 8.43875 95.6035 9.00546C95.0648 9.57324 94.7965 10.3833 94.7965 11.4377V18.7688H91.4238V5.49524H94.7965V7.14843C95.2461 6.57317 95.8202 6.12279 96.5188 5.79514C97.2174 5.46749 97.9835 5.3042 98.8195 5.3042C100.41 5.3042 101.694 5.80368 102.674 6.80157Z" fill="#4D148C"/>
    <path d="M110.999 8.26162V14.6823C110.999 15.1294 111.108 15.4528 111.325 15.6524C111.541 15.852 111.906 15.9523 112.42 15.9523H113.986V18.7795H111.865C109.023 18.7795 107.602 17.4059 107.602 14.6588V8.26162H106.012V5.50595H107.602V2.22412H110.998V5.50595H113.986V8.26055H110.999V8.26162Z" fill="#4D148C"/>
    <path d="M116.448 3.36605C116.054 2.99144 115.857 2.52398 115.857 1.96474C115.857 1.40549 116.054 0.938032 116.448 0.563423C116.841 0.188815 117.335 0.000976562 117.93 0.000976562C118.523 0.000976562 119.018 0.188815 119.411 0.563423C119.805 0.939099 120.002 1.40656 120.002 1.96474C120.002 2.52398 119.805 2.99144 119.411 3.36605C119.018 3.74173 118.524 3.92957 117.93 3.92957C117.335 3.92957 116.84 3.74173 116.448 3.36605ZM119.591 5.51018V18.7826H116.218V5.51018H119.591Z" fill="#4D148C"/>
    <path d="M44.0397 38.4609L36.6162 31.0103V38.4609H32.5234V21.739H36.6162V29.2376L44.0397 21.739H48.9791L40.5608 30.0284L49.213 38.4619H44.0397V38.4609Z" fill="#FCAC0B"/>
    <path d="M51.6574 28.1084C52.1951 27.071 52.9258 26.2716 53.8497 25.7124C54.7726 25.1532 55.8049 24.8735 56.9456 24.8735C57.9414 24.8735 58.8127 25.0731 59.5596 25.4723C60.3064 25.8714 60.9042 26.3752 61.3538 26.9814V25.0891H64.7501V38.3616H61.3538V36.4213C60.9203 37.0446 60.3215 37.559 59.5596 37.9667C58.7966 38.3744 57.9178 38.5772 56.922 38.5772C55.7974 38.5772 54.7737 38.289 53.8508 37.7148C52.9269 37.1396 52.1961 36.3295 51.6585 35.2825C51.1198 34.2366 50.8516 33.0349 50.8516 31.6773C50.8505 30.3368 51.1188 29.1479 51.6574 28.1084ZM60.8709 29.6303C60.549 29.0476 60.1154 28.6004 59.5703 28.2888C59.0241 27.9771 58.4382 27.8213 57.8115 27.8213C57.1849 27.8213 56.6076 27.9729 56.0775 28.277C55.5474 28.5801 55.117 29.0241 54.7887 29.6068C54.4592 30.1896 54.2951 30.8811 54.2951 31.6795C54.2951 32.4778 54.4592 33.1768 54.7887 33.7756C55.1181 34.3743 55.5516 34.8332 56.0893 35.1534C56.6269 35.4725 57.201 35.6326 57.8115 35.6326C58.4382 35.6326 59.0241 35.4768 59.5703 35.1651C60.1165 34.8535 60.55 34.4063 60.8709 33.8236C61.1917 33.2409 61.3527 32.5418 61.3527 31.7275C61.3527 30.9121 61.1917 30.213 60.8709 29.6303Z" fill="#FCAC0B"/>
    <path d="M71.5792 25.5929C72.2777 25.1937 73.0761 24.9941 73.9764 24.9941V28.5161H73.0847C72.0245 28.5161 71.2261 28.7637 70.6874 29.2589C70.1487 29.7541 69.8805 30.6165 69.8805 31.846V38.4587H66.5078V25.1862H69.8805V27.2471C70.314 26.5438 70.8806 25.9931 71.5792 25.5929Z" fill="#FCAC0B"/>
    <path d="M84.5783 25.5576C85.3327 25.9493 85.9272 26.4562 86.3607 27.0785V25.1862H89.757V38.5547C89.757 39.7842 89.508 40.8824 89.0101 41.8494C88.5122 42.8152 87.7653 43.5826 86.7695 44.1493C85.7737 44.716 84.5687 44.9999 83.1565 44.9999C81.2614 44.9999 79.7076 44.5602 78.495 43.6829C77.2825 42.8046 76.5957 41.606 76.4358 40.0894H79.7838C79.9609 40.6967 80.3418 41.1791 80.9277 41.5388C81.5136 41.8985 82.224 42.0778 83.0599 42.0778C84.0396 42.0778 84.8348 41.7864 85.4443 41.2037C86.0549 40.6209 86.3596 39.7383 86.3596 38.5569V36.496C85.9261 37.1193 85.3273 37.6379 84.5654 38.0531C83.8025 38.4683 82.9311 38.6764 81.9514 38.6764C80.8268 38.6764 79.7988 38.3882 78.8685 37.814C77.937 37.2388 77.202 36.4287 76.6644 35.3818C76.1257 34.3358 75.8574 33.1341 75.8574 31.7765C75.8574 30.435 76.1268 29.245 76.6644 28.2066C77.202 27.1692 77.9328 26.3698 78.8567 25.8106C79.7795 25.2513 80.8118 24.9717 81.9525 24.9717C82.9483 24.9706 83.8229 25.1659 84.5783 25.5576ZM85.8789 29.7263C85.557 29.1436 85.1234 28.6964 84.5783 28.3848C84.0321 28.0731 83.4462 27.9173 82.8195 27.9173C82.1929 27.9173 81.6156 28.0689 81.0855 28.373C80.5554 28.6761 80.125 29.1201 79.7967 29.7029C79.4673 30.2856 79.3031 30.9772 79.3031 31.7755C79.3031 32.5738 79.4673 33.2728 79.7967 33.8716C80.1261 34.4703 80.5596 34.9292 81.0973 35.2494C81.6349 35.5685 82.209 35.7286 82.8195 35.7286C83.4462 35.7286 84.0321 35.5728 84.5783 35.2612C85.1245 34.9495 85.558 34.5023 85.8789 33.9196C86.1997 33.3369 86.3607 32.6378 86.3607 31.8235C86.3607 31.0081 86.1997 30.3091 85.8789 29.7263Z" fill="#FCAC0B"/>
    <path d="M94.5132 37.813C93.5507 37.2463 92.7963 36.4437 92.2469 35.4052C91.6975 34.3679 91.4238 33.1693 91.4238 31.8118C91.4238 30.4542 91.706 29.2568 92.2694 28.2183C92.8328 27.1799 93.6033 26.3773 94.5808 25.8106C95.5584 25.2439 96.6476 24.96 97.8505 24.96C99.0534 24.96 100.143 25.2439 101.12 25.8106C102.097 26.3773 102.867 27.1799 103.432 28.2183C103.995 29.2568 104.277 30.4542 104.277 31.8118C104.277 33.1693 103.987 34.3679 103.409 35.4052C102.831 36.4437 102.048 37.2463 101.064 37.813C100.079 38.3797 98.9783 38.6636 97.7614 38.6636C96.5574 38.6636 95.4758 38.3808 94.5132 37.813ZM99.3732 35.2975C99.8765 35.0018 100.279 34.5589 100.579 33.9676C100.88 33.3774 101.03 32.6581 101.03 31.8118C101.03 30.5503 100.718 29.5801 100.094 28.9003C99.4708 28.2215 98.7079 27.8821 97.8054 27.8821C96.903 27.8821 96.1486 28.2215 95.5391 28.9003C94.9306 29.5791 94.6259 30.5492 94.6259 31.8118C94.6259 33.0733 94.9221 34.0445 95.5165 34.7233C96.11 35.402 96.8579 35.7414 97.7603 35.7414C98.3323 35.7414 98.8688 35.5931 99.3732 35.2975Z" fill="#FCAC0B"/>
    <path d="M12.8297 35.3873L9.0793 32.6029L4.47795 29.1887L0 25.8652V38.5347H25.58V25.9816L16.5876 32.6157L12.8297 35.3873Z" fill="#FCAC0B"/>
    <path d="M0 1.26587V5.8092V22.6773L4.47795 26.0018L9.0793 29.416L12.8297 32.1994L16.5876 29.4288L25.58 22.7947V12.423H12.7911V16.7956H21.1739V20.4936L12.8361 26.6453L4.47795 20.4414V5.8092H21.1739V10.2351H25.58V1.26587H0Z" fill="#4D148C"/>
</svg>
