<svg width="59" height="35" viewBox="0 0 59 35" fill="none" xmlns="http://www.w3.org/2000/svg">
    <path d="M58.4547 17.3221C58.4547 26.8538 50.756 34.6442 41.1326 34.6442C31.6009 34.6442 23.8105 26.8538 23.8105 17.3221C23.8105 7.79035 31.5093 0 41.041 0C50.756 0 58.4547 7.79035 58.4547 17.3221Z" fill="#FFB600"/>
    <path d="M41.1326 0C50.6644 0 58.4547 7.79035 58.4547 17.3221C58.4547 26.8538 50.756 34.6442 41.1326 34.6442C31.6009 34.6442 23.8105 26.8538 23.8105 17.3221" fill="#F7981D"/>
    <path d="M41.1328 0C50.6645 0 58.4549 7.79035 58.4549 17.3221C58.4549 26.8538 50.7562 34.6442 41.1328 34.6442" fill="#FF8500"/>
    <path d="M17.8536 0C8.41355 0.0916512 0.714844 7.79035 0.714844 17.3221C0.714844 26.8538 8.41355 34.6442 18.0369 34.6442C22.5278 34.6442 26.5605 32.9028 29.6766 30.1533C30.3182 29.6033 30.8681 28.9618 31.418 28.3202H27.8436C27.3854 27.7703 26.9271 27.1288 26.5605 26.5789H32.7011C33.0677 26.0289 33.4343 25.3874 33.7093 24.7458H25.5523C25.2774 24.1959 25.0024 23.5544 24.8191 22.9128H34.3509C34.9008 21.1714 35.2674 19.3384 35.2674 17.4137C35.2674 16.1306 35.0841 14.9391 34.9008 13.7477H24.2692C24.3609 13.1061 24.5442 12.5562 24.7275 11.9147H34.2592C34.0759 11.2731 33.8009 10.6315 33.526 10.0816H25.4607C25.7356 9.44008 26.1022 8.89017 26.4688 8.24861H32.6095C32.2429 7.60705 31.7846 6.96549 31.2347 6.41559H27.8436C28.3935 5.77403 28.9434 5.22412 29.585 4.67421C26.5605 1.83302 22.4362 0.183302 17.9453 0.183302C17.9453 -1.77542e-07 17.9453 0 17.8536 0Z" fill="#FF5050"/>
    <path d="M0.714844 17.3227C0.714844 26.8545 8.41355 34.6448 18.0369 34.6448C22.5278 34.6448 26.5605 32.9035 29.6766 30.1539C30.3182 29.604 30.8681 28.9625 31.418 28.3209H27.8436C27.3854 27.771 26.9271 27.1294 26.5605 26.5795H32.7011C33.0677 26.0296 33.4343 25.3881 33.7093 24.7465H25.5523C25.2774 24.1966 25.0024 23.555 24.8191 22.9135H34.3509C34.9008 21.1721 35.2674 19.3391 35.2674 17.4144C35.2674 16.1313 35.0841 14.9398 34.9008 13.7483H24.2692C24.3609 13.1068 24.5442 12.5569 24.7275 11.9153H34.2592C34.0759 11.2738 33.8009 10.6322 33.526 10.0823H25.4607C25.7356 9.44074 26.1022 8.89083 26.4688 8.24927H32.6095C32.2429 7.60771 31.7846 6.96615 31.2347 6.41624H27.8436C28.3935 5.77469 28.9434 5.22478 29.585 4.67487C26.5605 1.83368 22.4362 0.18396 17.9453 0.18396H17.8536" fill="#E52836"/>
    <path d="M18.0368 34.6448C22.5277 34.6448 26.5604 32.9035 29.6765 30.1539C30.3181 29.604 30.868 28.9625 31.4179 28.3209H27.8435C27.3852 27.771 26.927 27.1294 26.5604 26.5795H32.701C33.0676 26.0296 33.4342 25.3881 33.7092 24.7465H25.5522C25.2773 24.1966 25.0023 23.555 24.819 22.9135H34.3507C34.9006 21.1721 35.2672 19.3391 35.2672 17.4144C35.2672 16.1313 35.0839 14.9398 34.9006 13.7483H24.2691C24.3608 13.1068 24.5441 12.5569 24.7274 11.9153H34.2591C34.0758 11.2738 33.8008 10.6322 33.5259 10.0823H25.4606C25.7355 9.44074 26.1021 8.89083 26.4687 8.24927H32.6094C32.2428 7.60771 31.7845 6.96615 31.2346 6.41624H27.8435C28.3934 5.77469 28.9433 5.22478 29.5849 4.67487C26.5604 1.83368 22.4361 0.18396 17.9452 0.18396H17.8535" fill="#CB2026"/>
    <path d="M24.1755 21.7217L24.4504 20.1636C24.3588 20.1636 24.1755 20.2553 23.9922 20.2553C23.3506 20.2553 23.259 19.8887 23.3506 19.7053L23.9005 16.4976H24.9087L25.1836 14.7562H24.2671L24.4504 13.6564H22.6174C22.6174 13.6564 21.5176 19.7054 21.5176 20.4386C21.5176 21.5384 22.1591 21.9966 22.984 21.9966C23.5339 21.9966 23.9922 21.8133 24.1755 21.7217Z" fill="white"/>
    <path d="M24.8184 18.7889C24.8184 21.3551 26.5597 21.9967 28.0262 21.9967C29.4009 21.9967 29.9508 21.7217 29.9508 21.7217L30.3174 19.9803C30.3174 19.9803 29.3093 20.4386 28.3928 20.4386C26.3764 20.4386 26.743 18.9722 26.743 18.9722H30.5007C30.5007 18.9722 30.7757 17.7807 30.7757 17.3224C30.7757 16.131 30.1341 14.6646 28.1178 14.6646C26.1931 14.4813 24.8184 16.4976 24.8184 18.7889ZM28.0262 16.131C29.0343 16.131 28.851 17.3224 28.851 17.4141H26.8347C26.8347 17.3224 27.018 16.131 28.0262 16.131Z" fill="white"/>
    <path d="M39.6658 21.7217L40.0324 19.7054C40.0324 19.7054 39.1159 20.1636 38.4744 20.1636C37.1912 20.1636 36.6413 19.1555 36.6413 18.0557C36.6413 15.856 37.7411 14.6646 39.0243 14.6646C39.9408 14.6646 40.674 15.2145 40.674 15.2145L40.9489 13.2898C40.9489 13.2898 39.8491 12.8315 38.841 12.8315C36.733 12.8315 34.625 14.6646 34.625 18.1473C34.625 20.4386 35.7248 21.9967 37.9244 21.9967C38.6577 21.9967 39.6658 21.7217 39.6658 21.7217Z" fill="white"/>
    <path d="M14.096 14.4818C12.8129 14.4818 11.8964 14.8484 11.8964 14.8484L11.6214 16.4065C11.6214 16.4065 12.4463 16.0399 13.6378 16.0399C14.2793 16.0399 14.8292 16.1315 14.8292 16.6814C14.8292 17.048 14.7376 17.1397 14.7376 17.1397C14.7376 17.1397 14.1877 17.1397 13.9127 17.1397C12.3547 17.1397 10.6133 17.7813 10.6133 19.8892C10.6133 21.539 11.7131 21.9056 12.3547 21.9056C13.6378 21.9056 14.1877 21.0807 14.2793 21.0807L14.1877 21.8139H15.8374L16.5706 16.7731C16.5706 14.5735 14.7376 14.4818 14.096 14.4818ZM14.4626 18.6061C14.4626 18.8811 14.2793 20.3475 13.1795 20.3475C12.6296 20.3475 12.4463 19.8892 12.4463 19.6143C12.4463 19.156 12.7213 18.5145 14.096 18.5145C14.371 18.6061 14.4626 18.6061 14.4626 18.6061Z" fill="white"/>
    <path d="M18.3111 21.9049C18.7694 21.9049 21.0606 21.9966 21.0606 19.522C21.0606 17.2307 18.861 17.689 18.861 16.7725C18.861 16.3142 19.2276 16.1309 19.8692 16.1309C20.1441 16.1309 21.1523 16.2226 21.1523 16.2226L21.4272 14.5728C21.4272 14.5728 20.7857 14.3895 19.6859 14.3895C18.3111 14.3895 16.9363 14.9394 16.9363 16.7725C16.9363 18.8804 19.2276 18.6971 19.2276 19.522C19.2276 20.0719 18.5861 20.1636 18.1278 20.1636C17.3029 20.1636 16.4781 19.8886 16.4781 19.8886L16.2031 21.5383C16.2948 21.7216 16.753 21.9049 18.3111 21.9049Z" fill="white"/>
    <path d="M54.8804 13.0143L54.5138 15.4889C54.5138 15.4889 53.7805 14.5724 52.7724 14.5724C51.1227 14.5724 49.6562 16.5887 49.6562 18.9716C49.6562 20.438 50.3895 21.9961 51.9475 21.9961C53.0473 21.9961 53.6889 21.2629 53.6889 21.2629L53.5972 21.9044H55.4303L56.805 13.1059L54.8804 13.0143ZM54.0555 17.8718C54.0555 18.88 53.5972 20.1631 52.5891 20.1631C51.9475 20.1631 51.5809 19.6132 51.5809 18.6967C51.5809 17.2302 52.2225 16.3137 53.0473 16.3137C53.6889 16.3137 54.0555 16.772 54.0555 17.8718Z" fill="white"/>
    <path d="M4.10466 21.8128L5.20447 15.2139L5.38777 21.8128H6.67089L9.05382 15.2139L8.04566 21.8128H9.97034L11.4368 13.0143H8.41226L6.57924 18.4217L6.48759 13.0143H3.8297L2.36328 21.8128H4.10466Z" fill="white"/>
    <path d="M32.5163 21.8134C33.0662 18.7889 33.1579 16.3143 34.441 16.7725C34.6243 15.5811 34.8993 15.1228 35.0826 14.6646C35.0826 14.6646 34.9909 14.6646 34.716 14.6646C33.8911 14.6646 33.2495 15.7644 33.2495 15.7644L33.4328 14.7562H31.6915L30.5 21.905H32.5163V21.8134Z" fill="white"/>
    <path d="M43.8812 14.4818C42.5981 14.4818 41.6816 14.8484 41.6816 14.8484L41.4066 16.4065C41.4066 16.4065 42.2315 16.0399 43.4229 16.0399C44.0645 16.0399 44.6144 16.1315 44.6144 16.6814C44.6144 17.048 44.5227 17.1397 44.5227 17.1397C44.5227 17.1397 43.9728 17.1397 43.6979 17.1397C42.1398 17.1397 40.3984 17.7813 40.3984 19.8892C40.3984 21.539 41.4983 21.9056 42.1398 21.9056C43.4229 21.9056 43.9728 21.0807 44.0645 21.0807L43.9728 21.8139H45.6226L46.3558 16.7731C46.4474 14.5735 44.5227 14.4818 43.8812 14.4818ZM44.3394 18.6061C44.3394 18.8811 44.1561 20.3475 43.0563 20.3475C42.5064 20.3475 42.3231 19.8892 42.3231 19.6143C42.3231 19.156 42.5981 18.5145 43.9728 18.5145C44.2478 18.6061 44.2478 18.6061 44.3394 18.6061Z" fill="white"/>
    <path d="M47.9148 21.8134C48.4647 18.7889 48.5563 16.3143 49.8394 16.7725C50.0227 15.5811 50.2977 15.1228 50.481 14.6646C50.481 14.6646 50.3893 14.6646 50.1144 14.6646C49.2895 14.6646 48.648 15.7644 48.648 15.7644L48.8313 14.7562H47.0899L45.8984 21.905H47.9148V21.8134Z" fill="white"/>
    <path d="M21.3359 20.4386C21.3359 21.5384 21.9775 21.9966 22.8024 21.9966C23.4439 21.9966 23.9938 21.8133 24.1771 21.7217L24.4521 20.1636C24.3604 20.1636 24.1771 20.2553 23.9938 20.2553C23.3523 20.2553 23.2606 19.8887 23.3523 19.7053L23.9022 16.4976H24.9103L25.1853 14.7562H24.2688L24.4521 13.6564" fill="#DCE5E5"/>
    <path d="M25.7344 18.7889C25.7344 21.3551 26.5592 21.9967 28.0257 21.9967C29.4004 21.9967 29.9503 21.7217 29.9503 21.7217L30.3169 19.9803C30.3169 19.9803 29.3088 20.4386 28.3923 20.4386C26.3759 20.4386 26.7425 18.9722 26.7425 18.9722H30.5002C30.5002 18.9722 30.7752 17.7807 30.7752 17.3224C30.7752 16.131 30.1336 14.6646 28.1173 14.6646C26.1926 14.4813 25.7344 16.4976 25.7344 18.7889ZM28.0257 16.131C29.0338 16.131 29.2171 17.3224 29.2171 17.4141H26.8342C26.8342 17.3224 27.0175 16.131 28.0257 16.131Z" fill="#DCE5E5"/>
    <path d="M39.6653 21.7217L40.0319 19.7054C40.0319 19.7054 39.1154 20.1636 38.4739 20.1636C37.1907 20.1636 36.6408 19.1555 36.6408 18.0557C36.6408 15.856 37.7406 14.6646 39.0238 14.6646C39.9403 14.6646 40.6735 15.2145 40.6735 15.2145L40.9484 13.2898C40.9484 13.2898 39.8486 12.8315 38.8405 12.8315C36.7325 12.8315 35.541 14.6646 35.541 18.1473C35.541 20.4386 35.7243 21.9967 37.9239 21.9967C38.6572 21.9967 39.6653 21.7217 39.6653 21.7217Z" fill="#DCE5E5"/>
    <path d="M11.6214 16.4976C11.6214 16.4976 12.4463 16.131 13.6378 16.131C14.2793 16.131 14.8292 16.2226 14.8292 16.7725C14.8292 17.1391 14.7376 17.2308 14.7376 17.2308C14.7376 17.2308 14.1877 17.2308 13.9127 17.2308C12.3547 17.2308 10.6133 17.8723 10.6133 19.9803C10.6133 21.63 11.7131 21.9966 12.3547 21.9966C13.6378 21.9966 14.1877 21.1718 14.2793 21.1718L14.1877 21.905H15.8374L16.5706 16.8642C16.5706 14.7562 14.7376 14.6646 14.0044 14.6646L11.6214 16.4976ZM15.3791 18.6056C15.3791 18.8805 14.2793 20.3469 13.1795 20.3469C12.6296 20.3469 12.4463 19.8887 12.4463 19.6137C12.4463 19.1555 12.7213 18.5139 14.096 18.5139C14.371 18.6056 15.3791 18.6056 15.3791 18.6056Z" fill="#DCE5E5"/>
    <path d="M16.2949 21.7216C16.2949 21.7216 16.8448 21.9049 18.4029 21.9049C18.8612 21.9049 21.1524 21.9966 21.1524 19.522C21.1524 17.2307 18.9528 17.689 18.9528 16.7725C18.9528 16.3142 19.3194 16.1309 19.961 16.1309C20.2359 16.1309 21.2441 16.2226 21.2441 16.2226L21.519 14.5728C21.519 14.5728 20.8775 14.3895 19.7777 14.3895C18.4029 14.3895 17.9446 14.9394 17.9446 16.7725C17.9446 18.8804 19.3194 18.6971 19.3194 19.522C19.3194 20.0719 18.6779 20.1636 18.2196 20.1636" fill="#DCE5E5"/>
    <path d="M54.5141 15.4896C54.5141 15.4896 53.7808 14.5731 52.7727 14.5731C51.123 14.5731 50.5731 16.5894 50.5731 18.9724C50.5731 20.4388 50.3898 21.9969 51.9478 21.9969C53.0476 21.9969 53.6892 21.2636 53.6892 21.2636L53.5975 21.9052H55.4306L56.8053 13.1067L54.5141 15.4896ZM54.4224 17.8726C54.4224 18.8807 53.5975 20.1638 52.5894 20.1638C51.9478 20.1638 51.5812 19.6139 51.5812 18.6974C51.5812 17.231 52.2228 16.3145 53.0476 16.3145C53.6892 16.3145 54.4224 16.7727 54.4224 17.8726Z" fill="#DCE5E5"/>
    <path d="M4.10466 21.8128L5.20447 15.2139L5.38777 21.8128H6.67089L9.05382 15.2139L8.04566 21.8128H9.97034L11.4368 13.0143H9.14547L6.57924 18.4217L6.48759 13.0143H5.47942L2.36328 21.8128H4.10466Z" fill="#DCE5E5"/>
    <path d="M30.5918 21.8134H32.5165C33.0664 18.7889 33.158 16.3143 34.4412 16.7725C34.6245 15.5811 34.8994 15.1228 35.0827 14.6646C35.0827 14.6646 34.9911 14.6646 34.7161 14.6646C33.8912 14.6646 33.2497 15.7644 33.2497 15.7644L33.433 14.7562" fill="#DCE5E5"/>
    <path d="M41.4066 16.4976C41.4066 16.4976 42.2315 16.131 43.4229 16.131C44.0645 16.131 44.6144 16.2226 44.6144 16.7725C44.6144 17.1391 44.5227 17.2308 44.5227 17.2308C44.5227 17.2308 43.9728 17.2308 43.6979 17.2308C42.1398 17.2308 40.3984 17.8723 40.3984 19.9803C40.3984 21.63 41.4983 21.9966 42.1398 21.9966C43.4229 21.9966 43.9728 21.1718 44.0645 21.1718L43.9728 21.905H45.6226L46.3558 16.8642C46.3558 14.7562 44.5227 14.6646 43.7895 14.6646L41.4066 16.4976ZM45.1643 18.6056C45.1643 18.8805 44.0645 20.3469 42.9647 20.3469C42.4148 20.3469 42.2315 19.8887 42.2315 19.6137C42.2315 19.1555 42.5064 18.5139 43.8812 18.5139C44.2478 18.6056 45.1643 18.6056 45.1643 18.6056Z" fill="#DCE5E5"/>
    <path d="M45.9902 21.8134H47.9149C48.4648 18.7889 48.5565 16.3143 49.8396 16.7725C50.0229 15.5811 50.2978 15.1228 50.4811 14.6646C50.4811 14.6646 50.3895 14.6646 50.1145 14.6646C49.2897 14.6646 48.6481 15.7644 48.6481 15.7644L48.8314 14.7562" fill="#DCE5E5"/>
</svg>
