<svg width="61" height="19" viewBox="0 0 61 19" fill="none" xmlns="http://www.w3.org/2000/svg">
    <path d="M22.3594 18.0034L25.4567 0.580933H30.2963L27.2957 18.0034H22.3594Z" fill="#D9D9D9"/>
    <path d="M22.3594 18.0034L26.3278 0.580933H30.2963L27.2957 18.0034H22.3594Z" fill="white"/>
    <path d="M44.815 0.774332C43.8471 0.387165 42.2984 0 40.3626 0C35.523 0 32.0385 2.41979 32.0385 5.90428C32.0385 8.51765 34.4583 9.87274 36.3941 10.7439C38.3299 11.615 38.9107 12.1957 38.9107 12.9701C38.9107 14.1316 37.362 14.7123 36.0069 14.7123C34.0711 14.7123 33.0064 14.4219 31.3609 13.7444L30.6834 13.454L30.0059 17.4225C31.1674 17.9064 33.2968 18.3904 35.523 18.3904C40.6529 18.3904 44.0406 15.9706 44.0406 12.2925C44.0406 10.2599 42.7823 8.71124 39.8786 7.45295C38.1364 6.58182 37.0716 6.09787 37.0716 5.22674C37.0716 4.45241 37.9428 3.67808 39.8786 3.67808C41.5241 3.67808 42.6856 3.96845 43.5567 4.35562L44.0406 4.5492L44.815 0.774332Z" fill="#D9D9D9"/>
    <path d="M44.815 0.774332C43.8471 0.387165 42.2984 0 40.3626 0C35.523 0 32.9096 2.41979 32.9096 5.90428C32.9096 8.51765 34.4583 9.87274 36.3941 10.7439C38.3299 11.615 38.9107 12.1957 38.9107 12.9701C38.9107 14.1316 37.362 14.7123 36.0069 14.7123C34.0711 14.7123 33.0064 14.4219 31.3609 13.7444L30.6834 13.454L30.0059 17.4225C31.1674 17.9064 33.2968 18.3904 35.523 18.3904C40.6529 18.3904 44.0406 15.9706 44.0406 12.2925C44.0406 10.2599 42.7823 8.71124 39.8786 7.45295C38.1364 6.58182 37.0716 6.09787 37.0716 5.22674C37.0716 4.45241 37.9428 3.67808 39.8786 3.67808C41.5241 3.67808 42.6856 3.96845 43.5567 4.35562L44.0406 4.5492L44.815 0.774332Z" fill="white"/>
    <path d="M53.1373 0.580933C51.9758 0.580933 51.1046 0.677725 50.6207 1.83922L43.3613 18.0034H48.5881L49.556 15.0997H55.7506L56.3314 18.0034H60.9774L56.9121 0.580933H53.1373ZM50.9111 12.1959C51.2014 11.3248 52.8469 7.06597 52.8469 7.06597C52.8469 7.06597 53.2341 6.00126 53.5244 5.32372L53.8148 6.96918C53.8148 6.96918 54.7827 11.3248 54.9763 12.2927H50.9111V12.1959Z" fill="#D9D9D9"/>
    <path d="M54.2988 0.580933C53.1373 0.580933 52.2661 0.677725 51.7822 1.83922L43.3613 18.0034H48.5881L49.556 15.0997H55.7506L56.3314 18.0034H60.9774L56.9121 0.580933H54.2988ZM50.9111 12.1959C51.2982 11.228 52.8469 7.06597 52.8469 7.06597C52.8469 7.06597 53.2341 6.00126 53.5244 5.32372L53.8148 6.96918C53.8148 6.96918 54.7827 11.3248 54.9763 12.2927H50.9111V12.1959Z" fill="white"/>
    <path d="M13.4527 12.7764L12.9688 10.2598C12.0976 7.3561 9.29069 4.16198 6.19336 2.61332L10.549 18.1H15.7757L23.6158 0.67749H18.3891L13.4527 12.7764Z" fill="#D9D9D9"/>
    <path d="M13.4527 12.7764L12.9688 10.2598C12.0976 7.3561 9.29069 4.16198 6.19336 2.61332L10.549 18.1H15.7757L23.6158 0.67749H19.357L13.4527 12.7764Z" fill="white"/>
    <path d="M0 0.580933L0.871124 0.774516C7.06578 2.22639 11.3246 5.90447 12.9701 10.2601L11.2278 2.03281C10.9374 0.871307 10.0663 0.580933 9.00161 0.580933H0Z" fill="#FFBC00"/>
    <path d="M0 0.580933C6.19466 2.03281 11.3246 5.80768 12.9701 10.1633L11.3246 3.2911C11.0342 2.1296 10.0663 1.45206 9.00161 1.45206L0 0.580933Z" fill="#F7981D"/>
    <path d="M0 0.580933C6.19466 2.03281 11.3246 5.80768 12.9701 10.1633L11.8086 6.38843C11.5182 5.22693 11.131 4.06543 9.77595 3.58147L0 0.580933Z" fill="#ED7C00"/>
    <path d="M18.2932 12.1962L15.0023 8.90533L13.4536 12.5834L13.0664 10.1636C12.1953 7.25988 9.38835 4.06575 6.29102 2.51709L10.6466 18.0037H15.8734L18.2932 12.1962Z" fill="#D9D9D9"/>
    <path d="M27.2938 18.0043L23.1318 13.7455L22.3574 18.0043H27.2938Z" fill="#D9D9D9"/>
    <path d="M38.4248 12.0028C38.8119 12.39 39.0055 12.6804 38.9087 13.0675C38.9087 14.229 37.3601 14.8098 36.005 14.8098C34.0692 14.8098 33.0044 14.5194 31.359 13.8418L30.6814 13.5515L30.0039 17.5199C31.1654 18.0039 33.2948 18.4878 35.521 18.4878C38.6184 18.4878 41.1349 17.6167 42.5868 16.0681L38.4248 12.0028Z" fill="#D9D9D9"/>
    <path d="M44.0391 18.0037H48.5883L49.5562 15.0999H55.7508L56.3316 18.0037H60.9776L59.3321 10.9379L53.5246 5.32397L53.815 6.87264C53.815 6.87264 54.7829 11.2283 54.9765 12.1962H50.9113C51.2984 11.2283 52.8471 7.06622 52.8471 7.06622C52.8471 7.06622 53.2343 6.00152 53.5246 5.32397" fill="#D9D9D9"/>
</svg>
